<svg xmlns="http://www.w3.org/2000/svg" version="1.1" xmlns:xlink="http://www.w3.org/1999/xlink" xmlns:svgjs="http://svgjs.dev/svgjs" width="1440" height="560" preserveAspectRatio="none" viewBox="0 0 1440 560"><g mask="url(&quot;#SvgjsMask1207&quot;)" fill="none"><rect width="1440" height="560" x="0" y="0" fill="rgba(202, 138, 4, 1)"></rect><path d="M12.63 326.82L62.86 355.82L62.86 413.82L12.63 442.82L-37.6 413.82L-37.6 355.82zM12.63 500.82L62.86 529.82L62.86 587.82L12.63 616.82L-37.6 587.82L-37.6 529.82zM113.09 152.82L163.32 181.82L163.32 239.82L113.09 268.82L62.86 239.82L62.86 181.82zM113.09 500.82L163.32 529.82L163.32 587.82L113.09 616.82L62.86 587.82L62.86 529.82zM213.55 -21.18L263.78 7.82L263.78 65.82L213.55 94.82L163.32 65.82L163.32 7.82zM263.78 239.82L314.02 268.82L314.02 326.82L263.78 355.82L213.55 326.82L213.55 268.82zM213.55 326.82L263.78 355.82L263.78 413.82L213.55 442.82L163.32 413.82L163.32 355.82zM364.25 65.82L414.48 94.82L414.48 152.82L364.25 181.82L314.02 152.82L314.02 94.82zM314.02 152.82L364.25 181.82L364.25 239.82L314.02 268.82L263.78 239.82L263.78 181.82zM314.02 326.82L364.25 355.82L364.25 413.82L314.02 442.82L263.78 413.82L263.78 355.82zM314.02 500.82L364.25 529.82L364.25 587.82L314.02 616.82L263.78 587.82L263.78 529.82zM414.48 -21.18L464.71 7.82L464.71 65.82L414.48 94.82L364.25 65.82L364.25 7.82zM514.94 -21.18L565.17 7.82L565.17 65.82L514.94 94.82L464.71 65.82L464.71 7.82zM514.94 326.82L565.17 355.82L565.17 413.82L514.94 442.82L464.71 413.82L464.71 355.82zM615.4 -21.18L665.63 7.82L665.63 65.82L615.4 94.82L565.17 65.82L565.17 7.82zM665.63 65.82L715.86 94.82L715.86 152.82L665.63 181.82L615.4 152.82L615.4 94.82zM615.4 152.82L665.63 181.82L665.63 239.82L615.4 268.82L565.17 239.82L565.17 181.82zM665.63 413.82L715.86 442.82L715.86 500.82L665.63 529.82L615.4 500.82L615.4 442.82zM715.86 -21.18L766.09 7.82L766.09 65.82L715.86 94.82L665.63 65.82L665.63 7.82zM715.86 152.82L766.09 181.82L766.09 239.82L715.86 268.82L665.63 239.82L665.63 181.82zM766.09 239.82L816.32 268.82L816.32 326.82L766.09 355.82L715.86 326.82L715.86 268.82zM715.86 326.82L766.09 355.82L766.09 413.82L715.86 442.82L665.63 413.82L665.63 355.82zM816.32 -21.18L866.56 7.82L866.56 65.82L816.32 94.82L766.09 65.82L766.09 7.82zM916.79 -21.18L967.02 7.82L967.02 65.82L916.79 94.82L866.56 65.82L866.56 7.82zM967.02 65.82L1017.25 94.82L1017.25 152.82L967.02 181.82L916.79 152.82L916.79 94.82zM967.02 239.82L1017.25 268.82L1017.25 326.82L967.02 355.82L916.79 326.82L916.79 268.82zM916.79 326.82L967.02 355.82L967.02 413.82L916.79 442.82L866.56 413.82L866.56 355.82zM967.02 413.82L1017.25 442.82L1017.25 500.82L967.02 529.82L916.79 500.82L916.79 442.82zM916.79 500.82L967.02 529.82L967.02 587.82L916.79 616.82L866.56 587.82L866.56 529.82zM1017.25 -21.18L1067.48 7.82L1067.48 65.82L1017.25 94.82L967.02 65.82L967.02 7.82zM1017.25 152.82L1067.48 181.82L1067.48 239.82L1017.25 268.82L967.02 239.82L967.02 181.82zM1067.48 239.82L1117.71 268.82L1117.71 326.82L1067.48 355.82L1017.25 326.82L1017.25 268.82zM1067.48 413.82L1117.71 442.82L1117.71 500.82L1067.48 529.82L1017.25 500.82L1017.25 442.82zM1117.71 -21.18L1167.94 7.82L1167.94 65.82L1117.71 94.82L1067.48 65.82L1067.48 7.82zM1167.94 65.82L1218.17 94.82L1218.17 152.82L1167.94 181.82L1117.71 152.82L1117.71 94.82zM1167.94 413.82L1218.17 442.82L1218.17 500.82L1167.94 529.82L1117.71 500.82L1117.71 442.82zM1218.17 -21.18L1268.4 7.82L1268.4 65.82L1218.17 94.82L1167.94 65.82L1167.94 7.82zM1268.4 65.82L1318.63 94.82L1318.63 152.82L1268.4 181.82L1218.17 152.82L1218.17 94.82zM1218.17 326.82L1268.4 355.82L1268.4 413.82L1218.17 442.82L1167.94 413.82L1167.94 355.82zM1268.4 413.82L1318.63 442.82L1318.63 500.82L1268.4 529.82L1218.17 500.82L1218.17 442.82zM1318.63 -21.18L1368.86 7.82L1368.86 65.82L1318.63 94.82L1268.4 65.82L1268.4 7.82zM1318.63 326.82L1368.86 355.82L1368.86 413.82L1318.63 442.82L1268.4 413.82L1268.4 355.82zM1318.63 500.82L1368.86 529.82L1368.86 587.82L1318.63 616.82L1268.4 587.82L1268.4 529.82zM1469.33 239.82L1519.56 268.82L1519.56 326.82L1469.33 355.82L1419.1 326.82L1419.1 268.82zM1419.1 326.82L1469.33 355.82L1469.33 413.82L1419.1 442.82L1368.86 413.82L1368.86 355.82z" stroke="rgba(161, 98, 7, 1)" stroke-width="2"></path></g><defs><mask id="SvgjsMask1207"><rect width="1440" height="560" fill="#ffffff"></rect></mask></defs></svg>